<mxfile host="Electron" modified="2023-05-17T05:45:18.583Z" agent="Mozilla/5.0 (Windows NT 10.0; Win64; x64) AppleWebKit/537.36 (KHTML, like Gecko) draw.io/21.2.8 Chrome/112.0.5615.165 Electron/24.2.0 Safari/537.36" etag="FGy2ENJMZxfMd1HxBoRy" version="21.2.8" type="device">
  <diagram name="Страница 1" id="CBYUvpmCvurycN4dGr5_">
    <mxGraphModel dx="1195" dy="704" grid="1" gridSize="10" guides="1" tooltips="1" connect="1" arrows="1" fold="1" page="1" pageScale="1" pageWidth="827" pageHeight="1169" math="0" shadow="0">
      <root>
        <mxCell id="0" />
        <mxCell id="1" parent="0" />
        <mxCell id="kRFlf7huvoWLgrA5B6Bp-1" value="" style="endArrow=none;dashed=1;html=1;rounded=0;" edge="1" parent="1">
          <mxGeometry width="50" height="50" relative="1" as="geometry">
            <mxPoint x="280" y="640" as="sourcePoint" />
            <mxPoint x="280" y="80" as="targetPoint" />
          </mxGeometry>
        </mxCell>
        <mxCell id="kRFlf7huvoWLgrA5B6Bp-2" value="Frontend" style="text;html=1;align=center;verticalAlign=middle;resizable=0;points=[];autosize=1;strokeColor=none;fillColor=none;" vertex="1" parent="1">
          <mxGeometry x="145" y="50" width="70" height="30" as="geometry" />
        </mxCell>
        <mxCell id="kRFlf7huvoWLgrA5B6Bp-3" value="Backend" style="text;html=1;align=center;verticalAlign=middle;resizable=0;points=[];autosize=1;strokeColor=none;fillColor=none;" vertex="1" parent="1">
          <mxGeometry x="345" y="50" width="70" height="30" as="geometry" />
        </mxCell>
        <mxCell id="kRFlf7huvoWLgrA5B6Bp-7" value="" style="edgeStyle=orthogonalEdgeStyle;rounded=0;orthogonalLoop=1;jettySize=auto;html=1;" edge="1" parent="1" source="kRFlf7huvoWLgrA5B6Bp-4" target="kRFlf7huvoWLgrA5B6Bp-5">
          <mxGeometry relative="1" as="geometry" />
        </mxCell>
        <mxCell id="kRFlf7huvoWLgrA5B6Bp-4" value="Запуск" style="rounded=0;whiteSpace=wrap;html=1;" vertex="1" parent="1">
          <mxGeometry x="320" y="80" width="120" height="40" as="geometry" />
        </mxCell>
        <mxCell id="kRFlf7huvoWLgrA5B6Bp-8" value="" style="edgeStyle=orthogonalEdgeStyle;rounded=0;orthogonalLoop=1;jettySize=auto;html=1;" edge="1" parent="1" source="kRFlf7huvoWLgrA5B6Bp-5" target="kRFlf7huvoWLgrA5B6Bp-6">
          <mxGeometry relative="1" as="geometry" />
        </mxCell>
        <mxCell id="kRFlf7huvoWLgrA5B6Bp-5" value="Инициализация сокет-сервера" style="rounded=0;whiteSpace=wrap;html=1;" vertex="1" parent="1">
          <mxGeometry x="320" y="160" width="120" height="40" as="geometry" />
        </mxCell>
        <mxCell id="kRFlf7huvoWLgrA5B6Bp-13" value="" style="edgeStyle=orthogonalEdgeStyle;rounded=0;orthogonalLoop=1;jettySize=auto;html=1;" edge="1" parent="1" source="kRFlf7huvoWLgrA5B6Bp-6" target="kRFlf7huvoWLgrA5B6Bp-12">
          <mxGeometry relative="1" as="geometry" />
        </mxCell>
        <mxCell id="kRFlf7huvoWLgrA5B6Bp-6" value="Ожидание задания" style="rounded=0;whiteSpace=wrap;html=1;" vertex="1" parent="1">
          <mxGeometry x="320" y="240" width="120" height="40" as="geometry" />
        </mxCell>
        <mxCell id="kRFlf7huvoWLgrA5B6Bp-11" style="edgeStyle=orthogonalEdgeStyle;rounded=0;orthogonalLoop=1;jettySize=auto;html=1;entryX=0.5;entryY=0;entryDx=0;entryDy=0;" edge="1" parent="1" source="kRFlf7huvoWLgrA5B6Bp-9" target="kRFlf7huvoWLgrA5B6Bp-10">
          <mxGeometry relative="1" as="geometry" />
        </mxCell>
        <mxCell id="kRFlf7huvoWLgrA5B6Bp-9" value="Запуск" style="rounded=0;whiteSpace=wrap;html=1;" vertex="1" parent="1">
          <mxGeometry x="120" y="80" width="120" height="40" as="geometry" />
        </mxCell>
        <mxCell id="kRFlf7huvoWLgrA5B6Bp-16" style="edgeStyle=orthogonalEdgeStyle;rounded=0;orthogonalLoop=1;jettySize=auto;html=1;exitX=0.5;exitY=1;exitDx=0;exitDy=0;" edge="1" parent="1" source="kRFlf7huvoWLgrA5B6Bp-10">
          <mxGeometry relative="1" as="geometry">
            <mxPoint x="380" y="300" as="targetPoint" />
            <Array as="points">
              <mxPoint x="180" y="300" />
            </Array>
          </mxGeometry>
        </mxCell>
        <mxCell id="kRFlf7huvoWLgrA5B6Bp-20" style="edgeStyle=orthogonalEdgeStyle;rounded=0;orthogonalLoop=1;jettySize=auto;html=1;exitX=0.5;exitY=1;exitDx=0;exitDy=0;entryX=0.5;entryY=0;entryDx=0;entryDy=0;" edge="1" parent="1" source="kRFlf7huvoWLgrA5B6Bp-10" target="kRFlf7huvoWLgrA5B6Bp-19">
          <mxGeometry relative="1" as="geometry" />
        </mxCell>
        <mxCell id="kRFlf7huvoWLgrA5B6Bp-10" value="Отправка задания на подключени" style="rounded=0;whiteSpace=wrap;html=1;" vertex="1" parent="1">
          <mxGeometry x="120" y="240" width="120" height="40" as="geometry" />
        </mxCell>
        <mxCell id="kRFlf7huvoWLgrA5B6Bp-15" style="edgeStyle=orthogonalEdgeStyle;rounded=0;orthogonalLoop=1;jettySize=auto;html=1;" edge="1" parent="1" source="kRFlf7huvoWLgrA5B6Bp-12">
          <mxGeometry relative="1" as="geometry">
            <mxPoint x="380" y="220" as="targetPoint" />
            <Array as="points">
              <mxPoint x="380" y="460" />
              <mxPoint x="511" y="460" />
              <mxPoint x="511" y="220" />
              <mxPoint x="380" y="220" />
            </Array>
          </mxGeometry>
        </mxCell>
        <mxCell id="kRFlf7huvoWLgrA5B6Bp-28" style="edgeStyle=orthogonalEdgeStyle;rounded=0;orthogonalLoop=1;jettySize=auto;html=1;exitX=0.5;exitY=1;exitDx=0;exitDy=0;" edge="1" parent="1" source="kRFlf7huvoWLgrA5B6Bp-12">
          <mxGeometry relative="1" as="geometry">
            <mxPoint x="180" y="500" as="targetPoint" />
            <Array as="points">
              <mxPoint x="380" y="500" />
              <mxPoint x="180" y="500" />
            </Array>
          </mxGeometry>
        </mxCell>
        <mxCell id="kRFlf7huvoWLgrA5B6Bp-12" value="Обработка задания" style="rounded=0;whiteSpace=wrap;html=1;" vertex="1" parent="1">
          <mxGeometry x="320" y="360" width="120" height="40" as="geometry" />
        </mxCell>
        <mxCell id="kRFlf7huvoWLgrA5B6Bp-17" value="configure task" style="text;html=1;align=center;verticalAlign=middle;resizable=0;points=[];autosize=1;strokeColor=none;fillColor=none;" vertex="1" parent="1">
          <mxGeometry x="185" y="277" width="100" height="30" as="geometry" />
        </mxCell>
        <mxCell id="kRFlf7huvoWLgrA5B6Bp-22" value="" style="edgeStyle=orthogonalEdgeStyle;rounded=0;orthogonalLoop=1;jettySize=auto;html=1;" edge="1" parent="1" source="kRFlf7huvoWLgrA5B6Bp-19" target="kRFlf7huvoWLgrA5B6Bp-21">
          <mxGeometry relative="1" as="geometry" />
        </mxCell>
        <mxCell id="kRFlf7huvoWLgrA5B6Bp-19" value="Ожидание ответа" style="rounded=0;whiteSpace=wrap;html=1;" vertex="1" parent="1">
          <mxGeometry x="120" y="320" width="120" height="40" as="geometry" />
        </mxCell>
        <mxCell id="kRFlf7huvoWLgrA5B6Bp-23" style="edgeStyle=orthogonalEdgeStyle;rounded=0;orthogonalLoop=1;jettySize=auto;html=1;" edge="1" parent="1" source="kRFlf7huvoWLgrA5B6Bp-21">
          <mxGeometry relative="1" as="geometry">
            <mxPoint x="380" y="320" as="targetPoint" />
            <Array as="points">
              <mxPoint x="180" y="460" />
              <mxPoint x="300" y="460" />
              <mxPoint x="300" y="320" />
            </Array>
          </mxGeometry>
        </mxCell>
        <mxCell id="kRFlf7huvoWLgrA5B6Bp-27" style="edgeStyle=orthogonalEdgeStyle;rounded=0;orthogonalLoop=1;jettySize=auto;html=1;exitX=0.5;exitY=1;exitDx=0;exitDy=0;entryX=0.5;entryY=0;entryDx=0;entryDy=0;" edge="1" parent="1" source="kRFlf7huvoWLgrA5B6Bp-21" target="kRFlf7huvoWLgrA5B6Bp-25">
          <mxGeometry relative="1" as="geometry" />
        </mxCell>
        <mxCell id="kRFlf7huvoWLgrA5B6Bp-21" value="Запуск измерения" style="rounded=0;whiteSpace=wrap;html=1;" vertex="1" parent="1">
          <mxGeometry x="120" y="400" width="120" height="40" as="geometry" />
        </mxCell>
        <mxCell id="kRFlf7huvoWLgrA5B6Bp-24" value="&lt;font style=&quot;font-size: 9px;&quot;&gt;freq, power, data, etc. tasks&lt;/font&gt;" style="text;html=1;align=center;verticalAlign=middle;resizable=0;points=[];autosize=1;strokeColor=none;fillColor=none;" vertex="1" parent="1">
          <mxGeometry x="177" y="436" width="130" height="30" as="geometry" />
        </mxCell>
        <mxCell id="kRFlf7huvoWLgrA5B6Bp-25" value="Отображение результатов" style="rounded=0;whiteSpace=wrap;html=1;" vertex="1" parent="1">
          <mxGeometry x="120" y="520" width="120" height="40" as="geometry" />
        </mxCell>
        <mxCell id="kRFlf7huvoWLgrA5B6Bp-29" value="data" style="text;html=1;align=center;verticalAlign=middle;resizable=0;points=[];autosize=1;strokeColor=none;fillColor=none;" vertex="1" parent="1">
          <mxGeometry x="311" y="475" width="50" height="30" as="geometry" />
        </mxCell>
        <mxCell id="kRFlf7huvoWLgrA5B6Bp-30" value="&lt;div style=&quot;text-align: left;&quot;&gt;&lt;span style=&quot;background-color: initial;&quot;&gt;Нельзя остановить выполнение задания, так как&amp;nbsp;&lt;/span&gt;&lt;/div&gt;&lt;div style=&quot;text-align: left;&quot;&gt;&lt;span style=&quot;background-color: initial;&quot;&gt;ядро запускает сокет-сервер, от которого приходят задания.&lt;/span&gt;&lt;/div&gt;&lt;div style=&quot;text-align: left;&quot;&gt;&lt;span style=&quot;background-color: initial;&quot;&gt;Вся обработка происходит в основном потоке&lt;/span&gt;&lt;/div&gt;" style="text;html=1;align=center;verticalAlign=middle;resizable=0;points=[];autosize=1;strokeColor=none;fillColor=none;" vertex="1" parent="1">
          <mxGeometry x="307" y="510" width="360" height="60" as="geometry" />
        </mxCell>
      </root>
    </mxGraphModel>
  </diagram>
</mxfile>
